<mxfile host="app.diagrams.net" modified="2022-04-29T12:02:47.292Z" agent="5.0 (Windows NT 10.0; Win64; x64) AppleWebKit/537.36 (KHTML, like Gecko) Chrome/100.0.4896.127 Safari/537.36 Edg/100.0.1185.50" etag="H4PDcGSf6v7gNHWSyKjw" version="17.4.6" type="github">
  <diagram id="bR2RG8FWKslpZoaEF9RB" name="Page-1">
    <mxGraphModel dx="1038" dy="579" grid="1" gridSize="10" guides="1" tooltips="1" connect="1" arrows="1" fold="1" page="1" pageScale="1" pageWidth="850" pageHeight="1100" math="0" shadow="0">
      <root>
        <mxCell id="0" />
        <mxCell id="1" parent="0" />
        <mxCell id="fEWPc0Kk-SRRKAmoeOfE-3" value="" style="edgeStyle=orthogonalEdgeStyle;rounded=0;orthogonalLoop=1;jettySize=auto;html=1;" edge="1" parent="1" source="fEWPc0Kk-SRRKAmoeOfE-1" target="fEWPc0Kk-SRRKAmoeOfE-2">
          <mxGeometry relative="1" as="geometry" />
        </mxCell>
        <mxCell id="fEWPc0Kk-SRRKAmoeOfE-1" value="start" style="rounded=1;whiteSpace=wrap;html=1;" vertex="1" parent="1">
          <mxGeometry x="80" y="30" width="90" height="20" as="geometry" />
        </mxCell>
        <mxCell id="fEWPc0Kk-SRRKAmoeOfE-5" value="" style="edgeStyle=orthogonalEdgeStyle;rounded=0;orthogonalLoop=1;jettySize=auto;html=1;" edge="1" parent="1" source="fEWPc0Kk-SRRKAmoeOfE-2" target="fEWPc0Kk-SRRKAmoeOfE-4">
          <mxGeometry relative="1" as="geometry" />
        </mxCell>
        <mxCell id="fEWPc0Kk-SRRKAmoeOfE-2" value="get the pop grp and pop grp leader" style="rounded=0;whiteSpace=wrap;html=1;" vertex="1" parent="1">
          <mxGeometry x="65" y="90" width="120" height="60" as="geometry" />
        </mxCell>
        <mxCell id="fEWPc0Kk-SRRKAmoeOfE-7" value="" style="edgeStyle=orthogonalEdgeStyle;rounded=0;orthogonalLoop=1;jettySize=auto;html=1;" edge="1" parent="1" source="fEWPc0Kk-SRRKAmoeOfE-4" target="fEWPc0Kk-SRRKAmoeOfE-6">
          <mxGeometry relative="1" as="geometry" />
        </mxCell>
        <mxCell id="fEWPc0Kk-SRRKAmoeOfE-4" value="IF target agent not undefined" style="rhombus;whiteSpace=wrap;html=1;rounded=0;" vertex="1" parent="1">
          <mxGeometry x="85" y="220" width="80" height="80" as="geometry" />
        </mxCell>
        <mxCell id="fEWPc0Kk-SRRKAmoeOfE-9" value="yes" style="edgeStyle=orthogonalEdgeStyle;rounded=0;orthogonalLoop=1;jettySize=auto;html=1;" edge="1" parent="1" source="fEWPc0Kk-SRRKAmoeOfE-6" target="fEWPc0Kk-SRRKAmoeOfE-8">
          <mxGeometry relative="1" as="geometry" />
        </mxCell>
        <mxCell id="fEWPc0Kk-SRRKAmoeOfE-14" value="no" style="edgeStyle=orthogonalEdgeStyle;rounded=0;orthogonalLoop=1;jettySize=auto;html=1;" edge="1" parent="1" source="fEWPc0Kk-SRRKAmoeOfE-6" target="fEWPc0Kk-SRRKAmoeOfE-13">
          <mxGeometry relative="1" as="geometry" />
        </mxCell>
        <mxCell id="fEWPc0Kk-SRRKAmoeOfE-6" value="IF target is truck" style="rhombus;whiteSpace=wrap;html=1;rounded=0;" vertex="1" parent="1">
          <mxGeometry x="85" y="340" width="80" height="80" as="geometry" />
        </mxCell>
        <mxCell id="fEWPc0Kk-SRRKAmoeOfE-18" value="" style="edgeStyle=orthogonalEdgeStyle;rounded=0;orthogonalLoop=1;jettySize=auto;html=1;" edge="1" parent="1" source="fEWPc0Kk-SRRKAmoeOfE-8" target="fEWPc0Kk-SRRKAmoeOfE-17">
          <mxGeometry relative="1" as="geometry" />
        </mxCell>
        <mxCell id="fEWPc0Kk-SRRKAmoeOfE-8" value="get the ppl tower point and set the target truck id" style="whiteSpace=wrap;html=1;rounded=0;" vertex="1" parent="1">
          <mxGeometry x="65" y="470" width="120" height="60" as="geometry" />
        </mxCell>
        <mxCell id="fEWPc0Kk-SRRKAmoeOfE-16" value="" style="edgeStyle=orthogonalEdgeStyle;rounded=0;orthogonalLoop=1;jettySize=auto;html=1;" edge="1" parent="1" source="fEWPc0Kk-SRRKAmoeOfE-13" target="fEWPc0Kk-SRRKAmoeOfE-15">
          <mxGeometry relative="1" as="geometry" />
        </mxCell>
        <mxCell id="fEWPc0Kk-SRRKAmoeOfE-13" value="ELSE IF target is card" style="rhombus;whiteSpace=wrap;html=1;rounded=0;" vertex="1" parent="1">
          <mxGeometry x="245" y="340" width="80" height="80" as="geometry" />
        </mxCell>
        <mxCell id="fEWPc0Kk-SRRKAmoeOfE-21" style="edgeStyle=orthogonalEdgeStyle;rounded=0;orthogonalLoop=1;jettySize=auto;html=1;entryX=0.5;entryY=0;entryDx=0;entryDy=0;" edge="1" parent="1" source="fEWPc0Kk-SRRKAmoeOfE-15" target="fEWPc0Kk-SRRKAmoeOfE-17">
          <mxGeometry relative="1" as="geometry">
            <Array as="points">
              <mxPoint x="285" y="560" />
              <mxPoint x="125" y="560" />
            </Array>
          </mxGeometry>
        </mxCell>
        <mxCell id="fEWPc0Kk-SRRKAmoeOfE-15" value="get the card position" style="whiteSpace=wrap;html=1;rounded=0;" vertex="1" parent="1">
          <mxGeometry x="225" y="470" width="120" height="60" as="geometry" />
        </mxCell>
        <mxCell id="fEWPc0Kk-SRRKAmoeOfE-23" style="edgeStyle=orthogonalEdgeStyle;rounded=0;orthogonalLoop=1;jettySize=auto;html=1;entryX=0.5;entryY=0;entryDx=0;entryDy=0;" edge="1" parent="1" source="fEWPc0Kk-SRRKAmoeOfE-17" target="fEWPc0Kk-SRRKAmoeOfE-22">
          <mxGeometry relative="1" as="geometry">
            <Array as="points">
              <mxPoint x="360" y="640" />
              <mxPoint x="360" y="40" />
              <mxPoint x="460" y="40" />
            </Array>
          </mxGeometry>
        </mxCell>
        <mxCell id="fEWPc0Kk-SRRKAmoeOfE-17" value="set the pop grp path and pop grp target point" style="whiteSpace=wrap;html=1;rounded=0;" vertex="1" parent="1">
          <mxGeometry x="65" y="610" width="120" height="60" as="geometry" />
        </mxCell>
        <mxCell id="fEWPc0Kk-SRRKAmoeOfE-25" value="" style="edgeStyle=orthogonalEdgeStyle;rounded=0;orthogonalLoop=1;jettySize=auto;html=1;" edge="1" parent="1" source="fEWPc0Kk-SRRKAmoeOfE-22" target="fEWPc0Kk-SRRKAmoeOfE-24">
          <mxGeometry relative="1" as="geometry" />
        </mxCell>
        <mxCell id="fEWPc0Kk-SRRKAmoeOfE-22" value="FOR pop grp&amp;nbsp;" style="rhombus;whiteSpace=wrap;html=1;" vertex="1" parent="1">
          <mxGeometry x="420" y="60" width="80" height="80" as="geometry" />
        </mxCell>
        <mxCell id="fEWPc0Kk-SRRKAmoeOfE-27" value="" style="edgeStyle=orthogonalEdgeStyle;rounded=0;orthogonalLoop=1;jettySize=auto;html=1;" edge="1" parent="1" source="fEWPc0Kk-SRRKAmoeOfE-24" target="fEWPc0Kk-SRRKAmoeOfE-26">
          <mxGeometry relative="1" as="geometry" />
        </mxCell>
        <mxCell id="fEWPc0Kk-SRRKAmoeOfE-24" value="IF pop is child" style="rhombus;whiteSpace=wrap;html=1;" vertex="1" parent="1">
          <mxGeometry x="420" y="180" width="80" height="80" as="geometry" />
        </mxCell>
        <mxCell id="fEWPc0Kk-SRRKAmoeOfE-29" value="" style="edgeStyle=orthogonalEdgeStyle;rounded=0;orthogonalLoop=1;jettySize=auto;html=1;" edge="1" parent="1" source="fEWPc0Kk-SRRKAmoeOfE-26" target="fEWPc0Kk-SRRKAmoeOfE-28">
          <mxGeometry relative="1" as="geometry" />
        </mxCell>
        <mxCell id="fEWPc0Kk-SRRKAmoeOfE-26" value="set the pop grp path and pop grp target point" style="whiteSpace=wrap;html=1;rounded=0;" vertex="1" parent="1">
          <mxGeometry x="400" y="300" width="120" height="60" as="geometry" />
        </mxCell>
        <mxCell id="fEWPc0Kk-SRRKAmoeOfE-31" value="" style="edgeStyle=orthogonalEdgeStyle;rounded=0;orthogonalLoop=1;jettySize=auto;html=1;" edge="1" parent="1" source="fEWPc0Kk-SRRKAmoeOfE-28" target="fEWPc0Kk-SRRKAmoeOfE-30">
          <mxGeometry relative="1" as="geometry" />
        </mxCell>
        <mxCell id="fEWPc0Kk-SRRKAmoeOfE-28" value="IF target is truck" style="rhombus;whiteSpace=wrap;html=1;rounded=0;" vertex="1" parent="1">
          <mxGeometry x="420" y="400" width="80" height="80" as="geometry" />
        </mxCell>
        <mxCell id="fEWPc0Kk-SRRKAmoeOfE-32" style="edgeStyle=orthogonalEdgeStyle;rounded=0;orthogonalLoop=1;jettySize=auto;html=1;entryX=1;entryY=0.5;entryDx=0;entryDy=0;" edge="1" parent="1" source="fEWPc0Kk-SRRKAmoeOfE-30" target="fEWPc0Kk-SRRKAmoeOfE-22">
          <mxGeometry relative="1" as="geometry">
            <Array as="points">
              <mxPoint x="460" y="590" />
              <mxPoint x="540" y="590" />
              <mxPoint x="540" y="100" />
            </Array>
          </mxGeometry>
        </mxCell>
        <mxCell id="fEWPc0Kk-SRRKAmoeOfE-33" value="next pop" style="edgeLabel;html=1;align=center;verticalAlign=middle;resizable=0;points=[];" vertex="1" connectable="0" parent="fEWPc0Kk-SRRKAmoeOfE-32">
          <mxGeometry x="0.2392" y="1" relative="1" as="geometry">
            <mxPoint as="offset" />
          </mxGeometry>
        </mxCell>
        <mxCell id="fEWPc0Kk-SRRKAmoeOfE-35" value="" style="edgeStyle=orthogonalEdgeStyle;rounded=0;orthogonalLoop=1;jettySize=auto;html=1;" edge="1" parent="1" source="fEWPc0Kk-SRRKAmoeOfE-30" target="fEWPc0Kk-SRRKAmoeOfE-34">
          <mxGeometry relative="1" as="geometry" />
        </mxCell>
        <mxCell id="fEWPc0Kk-SRRKAmoeOfE-30" value="set the target truck id" style="whiteSpace=wrap;html=1;rounded=0;" vertex="1" parent="1">
          <mxGeometry x="400" y="510" width="120" height="60" as="geometry" />
        </mxCell>
        <mxCell id="fEWPc0Kk-SRRKAmoeOfE-34" value="end" style="ellipse;whiteSpace=wrap;html=1;rounded=0;" vertex="1" parent="1">
          <mxGeometry x="400" y="610" width="120" height="50" as="geometry" />
        </mxCell>
      </root>
    </mxGraphModel>
  </diagram>
</mxfile>
